<svg width="188" height="48" viewBox="0 0 188 48" fill="none" xmlns="http://www.w3.org/2000/svg">
<path d="M7.19388 18.424C7.88721 18.424 8.54854 18.2533 9.17788 17.912C9.81788 17.56 10.4259 17.048 11.0019 16.376L11.4339 16.744C10.8685 17.4907 10.2125 18.0827 9.46588 18.52C8.71921 18.9467 7.85521 19.16 6.87388 19.16H6.85788C6.12188 19.16 5.43921 19.0267 4.80988 18.76C4.18054 18.4827 3.63121 18.0987 3.16188 17.608C2.69254 17.1173 2.32988 16.5413 2.07388 15.88C1.81788 15.2187 1.68988 14.4987 1.68988 13.72C1.68988 12.8987 1.82854 12.1467 2.10588 11.464C2.39388 10.7813 2.78854 10.1893 3.28988 9.688C3.79121 9.18667 4.37254 8.80267 5.03387 8.536C5.69521 8.25867 6.39921 8.12 7.14588 8.12C7.68988 8.12 8.17521 8.18933 8.60188 8.328C9.03921 8.46667 9.43921 8.65333 9.80188 8.888L10.1219 8.28H10.6819C10.7245 8.824 10.7832 9.368 10.8579 9.912C10.9432 10.456 11.0392 10.9787 11.1459 11.48L10.6179 11.64C10.4152 11.064 10.1699 10.5893 9.88188 10.216C9.60454 9.84267 9.30588 9.54933 8.98588 9.336C8.66588 9.12267 8.34054 8.97333 8.00988 8.888C7.68988 8.80267 7.38588 8.76 7.09788 8.76C6.35121 8.76 5.70588 8.968 5.16188 9.384C4.61788 9.8 4.19654 10.376 3.89788 11.112C3.60988 11.8373 3.46588 12.6693 3.46588 13.608C3.46588 14.536 3.60988 15.3627 3.89788 16.088C4.19654 16.8133 4.62321 17.384 5.17788 17.8C5.74321 18.216 6.41521 18.424 7.19388 18.424ZM19.315 19V18.44H20.515L20.611 18.344V8.936L20.515 8.84H19.315V8.28H23.571V8.84H22.387L22.291 8.936V18.344L22.387 18.44H23.571V19H19.315ZM12.595 19V18.44H13.795L13.891 18.344V8.936L13.795 8.84H12.595V8.28H16.851V8.84H15.667L15.571 8.936V18.344L15.667 18.44H16.851V19H12.595ZM15.187 13.72V13.16H21.107V13.72H15.187ZM24.5045 19V18.44H25.4325L29.3685 8.28H30.5685L34.3445 18.44H35.4005V19H31.3685V18.44H32.3765L32.4885 18.344L29.4965 10.088H29.4165L26.2325 18.344L26.3285 18.44H27.6565V19H24.5045ZM27.0805 15.24V14.68H31.9605V15.24H27.0805ZM42.0368 8.28H45.2848V8.84H44.3408L40.7088 19H39.5088L35.7328 8.84H34.6768V8.28H38.7728V8.84H37.7008L37.6048 8.936L40.5648 17.128H40.6448L43.4928 8.936L43.3968 8.84H42.0368V8.28ZM44.5201 19V18.44H45.4481L49.3841 8.28H50.5841L54.3601 18.44H55.4161V19H51.3841V18.44H52.3921L52.5041 18.344L49.5121 10.088H49.4321L46.2481 18.344L46.3441 18.44H47.6721V19H44.5201ZM47.0961 15.24V14.68H51.9761V15.24H47.0961ZM64.7134 19L58.4254 10.568H58.3454L57.6254 8.936L57.5294 8.84H56.3294V8.28H58.8254L65.1134 16.712H65.1934V19H64.7134ZM56.3294 19V18.44H57.5294L57.6254 18.344V8.936L58.3454 10.568V18.344L58.4414 18.44H59.7374V19H56.3294ZM67.0814 8.28V8.84H66.0094L65.9134 8.936V19H65.1934V8.936L65.0974 8.84H63.8014V8.28H67.0814ZM73.3861 8.28C74.1861 8.28 74.9168 8.39733 75.5781 8.632C76.2395 8.856 76.8101 9.18667 77.2901 9.624C77.7808 10.0613 78.1595 10.6 78.4261 11.24C78.6928 11.88 78.8261 12.616 78.8261 13.448C78.8261 14.2587 78.6875 15.0053 78.4101 15.688C78.1328 16.3707 77.7435 16.9573 77.2421 17.448C76.7408 17.9387 76.1595 18.3227 75.4981 18.6C74.8475 18.8667 74.1435 19 73.3861 19H68.2981V18.44H69.4981L69.5941 18.344V8.936L69.4981 8.84H68.2981V8.28H73.3861ZM73.2421 18.44C73.9995 18.44 74.6608 18.248 75.2261 17.864C75.8021 17.4693 76.2501 16.9147 76.5701 16.2C76.8901 15.4747 77.0501 14.6213 77.0501 13.64C77.0501 12.7013 76.8795 11.8693 76.5381 11.144C76.2075 10.4187 75.7381 9.85333 75.1301 9.448C74.5221 9.04267 73.8128 8.84 73.0021 8.84H71.3701L71.2741 8.936V18.344L71.3701 18.44H73.2421ZM85.5458 8.12C86.5698 8.12 87.4711 8.35467 88.2498 8.824C89.0284 9.29333 89.6364 9.944 90.0738 10.776C90.5218 11.608 90.7458 12.5627 90.7458 13.64C90.7458 14.4293 90.6124 15.16 90.3458 15.832C90.0791 16.504 89.7058 17.0907 89.2258 17.592C88.7564 18.0827 88.2071 18.4667 87.5778 18.744C86.9484 19.0213 86.2711 19.16 85.5458 19.16C84.5324 19.16 83.6311 18.9253 82.8418 18.456C82.0631 17.9867 81.4551 17.336 81.0178 16.504C80.5804 15.672 80.3618 14.7173 80.3618 13.64C80.3618 12.8507 80.4898 12.12 80.7458 11.448C81.0124 10.776 81.3804 10.1947 81.8498 9.704C82.3298 9.20267 82.8844 8.81333 83.5138 8.536C84.1538 8.25867 84.8311 8.12 85.5458 8.12ZM85.7058 18.52C86.3991 18.52 86.9858 18.3173 87.4658 17.912C87.9564 17.5067 88.3298 16.9413 88.5858 16.216C88.8418 15.4907 88.9698 14.6427 88.9698 13.672C88.9698 12.744 88.8311 11.912 88.5538 11.176C88.2764 10.4293 87.8711 9.84267 87.3378 9.416C86.8044 8.97867 86.1538 8.76 85.3858 8.76C84.7138 8.76 84.1324 8.96267 83.6418 9.368C83.1511 9.77333 82.7778 10.3387 82.5218 11.064C82.2658 11.7893 82.1378 12.6373 82.1378 13.608C82.1378 14.536 82.2764 15.3733 82.5538 16.12C82.8311 16.856 83.2364 17.4427 83.7698 17.88C84.3031 18.3067 84.9484 18.52 85.7058 18.52ZM91.8676 19V18.52L97.9476 8.936L97.8516 8.84H95.7396C95.153 8.84 94.6516 8.904 94.2356 9.032C93.8303 9.16 93.489 9.37867 93.2116 9.688C92.945 9.99733 92.7263 10.4347 92.5556 11L92.0276 10.84L92.6036 8.28H99.9956V8.76L93.8996 18.344L94.0116 18.44H96.7796C97.665 18.44 98.3636 18.2373 98.8756 17.832C99.3983 17.4267 99.7876 16.8027 100.044 15.96H100.604L99.9156 19H91.8676ZM109.611 15.64H110.171L109.419 19H101.579V18.44H102.779L102.875 18.344V8.936L102.779 8.84H101.579V8.28H105.835V8.84H104.651L104.555 8.936V18.344L104.651 18.44H106.299C107.174 18.44 107.878 18.1947 108.411 17.704C108.945 17.2027 109.345 16.5147 109.611 15.64ZM110.598 19V18.44H111.526L115.462 8.28H116.662L120.438 18.44H121.494V19H117.462V18.44H118.47L118.582 18.344L115.59 10.088H115.51L112.326 18.344L112.422 18.44H113.75V19H110.598ZM113.174 15.24V14.68H118.054V15.24H113.174ZM128.44 19V18.44H129.64L129.736 18.344L126.488 13.832H128.472L131.848 18.44H133V19H128.44ZM127.288 8.28C127.757 8.28 128.226 8.328 128.696 8.424C129.165 8.52 129.592 8.67467 129.976 8.888C130.37 9.09067 130.685 9.368 130.92 9.72C131.165 10.072 131.288 10.5093 131.288 11.032C131.288 11.5333 131.16 11.976 130.904 12.36C130.648 12.7333 130.317 13.048 129.911 13.304C129.517 13.5493 129.085 13.736 128.616 13.864C128.157 13.9813 127.714 14.04 127.288 14.04H124.664L125.384 13.32V18.344L125.48 18.44H126.664V19H122.408V18.44H123.608L123.704 18.344V8.936L123.608 8.84H122.408V8.28H127.288ZM125.384 14.2L124.664 13.48H126.888C127.378 13.48 127.816 13.416 128.2 13.288C128.594 13.1493 128.909 12.9147 129.144 12.584C129.378 12.2427 129.496 11.768 129.496 11.16C129.496 10.6373 129.373 10.2053 129.128 9.864C128.893 9.52267 128.578 9.26667 128.184 9.096C127.789 8.92533 127.357 8.84 126.888 8.84H125.48L125.384 8.936V14.2ZM65.2575 39L61.8175 30.152H61.7375L61.0175 28.936L60.9215 28.84H59.6575V28.28H62.9855L66.3455 36.968H66.4255L69.8175 28.28V30.536H69.7375L66.4575 39H65.2575ZM59.6575 39V38.44H60.9215L61.0175 38.344V28.936L61.7375 30.152V38.344L61.8495 38.44H63.1455V39H59.6575ZM68.5375 39V38.44H69.7215L69.8175 38.344V28.28H72.7935V28.84H71.5775L71.4975 28.92V38.344L71.6095 38.44H72.7935V39H68.5375ZM73.7076 39V38.44H74.6356L78.5716 28.28H79.7716L83.5476 38.44H84.6036V39H80.5716V38.44H81.5796L81.6916 38.344L78.6996 30.088H78.6196L75.4356 38.344L75.5316 38.44H76.8596V39H73.7076ZM76.2836 35.24V34.68H81.1636V35.24H76.2836ZM87.4689 34.712L93.5649 28.936L93.4689 28.84H91.7729V28.28H95.5489V28.84H94.6689L88.4289 34.712H87.4689ZM85.5169 39V38.44H86.7169L86.8129 38.344V28.936L86.7169 28.84H85.5169V28.28H89.7729V28.84H88.5889L88.4929 28.936V38.344L88.5889 38.44H89.7729V39H85.5169ZM91.6609 39V38.44H92.8449L92.9409 38.344L89.4529 33.368L90.7169 32.232L95.0689 38.44H96.1889V39H91.6609ZM105.135 28.28L105.727 30.904L105.199 31.064C105.029 30.488 104.805 30.04 104.527 29.72C104.25 29.4 103.893 29.176 103.455 29.048C103.018 28.9093 102.474 28.84 101.823 28.84V38.344L101.919 38.44H103.119V39H98.8633V38.44H100.047L100.143 38.344V28.84C99.5033 28.84 98.9646 28.9093 98.5273 29.048C98.0899 29.176 97.7326 29.4 97.4553 29.72C97.1779 30.04 96.9486 30.488 96.7673 31.064L96.2393 30.904L96.8313 28.28H105.135ZM104.723 39V38.44H105.651L109.587 28.28H110.787L114.563 38.44H115.619V39H111.587V38.44H112.595L112.707 38.344L109.715 30.088H109.635L106.451 38.344L106.547 38.44H107.875V39H104.723ZM107.299 35.24V34.68H112.179V35.24H107.299ZM122.437 33.512V33.336C123.162 33.3253 123.807 33.432 124.373 33.656C124.938 33.8693 125.386 34.1733 125.717 34.568C126.047 34.952 126.213 35.4213 126.213 35.976C126.213 36.5307 126.085 37 125.829 37.384C125.573 37.768 125.242 38.0773 124.837 38.312C124.442 38.5467 124.01 38.7227 123.541 38.84C123.082 38.9467 122.639 39 122.213 39H116.533V38.44H117.733L117.829 38.344V28.936L117.733 28.84H116.533V28.28H121.605C122.074 28.28 122.543 28.3227 123.013 28.408C123.482 28.4933 123.909 28.632 124.293 28.824C124.687 29.0053 125.002 29.2613 125.237 29.592C125.482 29.912 125.605 30.3173 125.605 30.808C125.605 31.5013 125.317 32.0773 124.741 32.536C124.165 32.9947 123.397 33.32 122.437 33.512ZM119.605 28.84L119.509 28.936V33.48L118.789 33.192H121.205C121.695 33.192 122.138 33.128 122.533 33C122.927 32.8613 123.242 32.6267 123.477 32.296C123.711 31.9653 123.829 31.5173 123.829 30.952C123.829 30.4827 123.706 30.0933 123.461 29.784C123.226 29.4747 122.906 29.24 122.501 29.08C122.106 28.92 121.674 28.84 121.205 28.84H119.605ZM121.813 38.44C122.303 38.44 122.741 38.3653 123.125 38.216C123.519 38.056 123.834 37.8053 124.069 37.464C124.303 37.112 124.421 36.6587 124.421 36.104C124.421 35.6347 124.298 35.224 124.053 34.872C123.818 34.52 123.503 34.248 123.109 34.056C122.714 33.8533 122.282 33.752 121.813 33.752H118.789L119.509 33.448V38.344L119.605 38.44H121.813ZM131.998 28.84H130.814L130.702 28.936V38.344L130.814 38.44H131.998V39H127.742V38.44H128.926L129.022 38.344V28.936L128.926 28.84H127.742V28.28H131.998V28.84Z" fill="#2D3142"/>
<path d="M162.795 17.3764C162.788 17.3268 162.77 17.2787 162.732 17.1679C162.692 17.054 162.572 17.1426 162.454 17.3637C162.373 17.5171 162.31 17.6441 162.272 17.7782C161.608 20.1569 161.325 22.575 161.486 25.0473C161.595 26.728 161.588 28.4153 161.025 30.0308C160.897 30.3982 160.707 30.7439 160.505 31.0961C160.298 31.461 159.816 31.5647 159.67 31.1715C159.541 30.8233 159.619 30.4706 159.682 30.1345C159.888 29.0505 160.189 27.9836 160.354 26.895C160.417 26.4745 160.407 26.0428 160.362 25.607C160.318 25.19 160.127 25.1708 159.977 25.5625C159.239 27.4952 158.637 29.4639 158.416 31.4944C158.198 33.4965 158.244 35.528 158.216 37.5508C158.211 37.9699 158.166 38.3165 158.122 38.3231C158.078 38.3297 157.913 38.0382 157.754 37.6687C157.658 37.4466 157.561 37.2239 157.464 37.0017C156.564 34.9601 155.496 33.0334 153.714 31.6057C152.915 30.9655 152.171 30.5733 151.283 30.3532C150.876 30.2524 150.699 30.3871 150.899 30.6022C151.027 30.7403 151.143 30.8663 151.256 30.9939C152.277 32.1417 153.439 33.1964 154.279 34.4637C155.369 36.1069 155.737 38.0306 155.633 40.0175C155.629 40.0919 155.611 40.1658 155.588 40.2513C155.553 40.3784 155.095 40.4027 155.219 40.8035C155.517 41.7676 156.849 44.3426 156.742 47.6044C156.728 48.0234 156.942 48.1317 157.22 47.818C158.217 46.6934 158.724 45.4494 158.748 43.9899C158.758 43.3795 158.727 42.7575 158.623 42.1578C158.382 40.7671 158.743 39.5448 159.507 38.394C160.022 37.6217 160.501 36.8251 160.98 36.0295C161.853 34.5765 162.099 32.9185 162.487 31.3102C162.939 29.43 163.472 27.559 163.748 25.6515C163.903 24.5882 163.643 23.4556 163.506 22.3614C163.297 20.6959 163.035 19.0374 162.795 17.3764Z" fill="#2D3142"/>
<path d="M153.187 18.2274C154.198 17.7856 154.701 18.0417 154.967 19.1086C155.111 19.682 155.271 20.2513 155.438 20.8181C155.457 20.8824 155.504 20.9376 155.583 21.0317C155.676 21.1415 155.822 20.9032 155.919 20.4953C156.01 20.1106 156.092 19.7604 156.157 19.4066C156.303 18.6111 156.388 17.8033 156.552 17.0118C156.772 15.9586 157.338 15.073 158.055 14.2941C158.675 13.6205 159.492 13.3123 160.394 13.3133C161.638 13.3148 162.882 13.3816 164.127 13.4003C164.301 13.4029 164.475 13.3872 164.65 13.3669C164.939 13.3335 165.183 13.2703 165.195 13.2277C165.207 13.1852 165.027 13.0542 164.794 12.9347C164.652 12.8628 164.51 12.7915 164.367 12.7242C163.218 12.1842 163.068 11.4392 164.001 10.5935C164.503 10.1385 164.498 9.6036 164.456 9.02514C164.434 8.72097 164.446 8.433 164.581 8.18806C164.781 7.82012 165.257 7.86719 165.385 8.06406C165.463 8.18401 165.537 8.30597 165.592 8.43604C165.654 8.58382 165.695 8.74071 165.739 8.92695C165.804 9.20277 166.056 9.1466 166.233 8.76602C166.465 8.26549 166.558 7.78267 166.472 7.27152C166.265 6.04475 166.016 4.82556 165.756 3.5082C165.675 3.09675 165.408 3.03652 165.157 3.37257C164.992 3.59525 164.839 3.8154 164.723 4.05377C164.022 5.48754 163.78 7.03112 163.878 8.60811C163.918 9.24276 163.699 9.52819 163.17 9.83691C160.477 11.4083 157.735 12.9175 155.166 14.6747C152.515 16.4885 150.269 18.7902 148.43 21.4503C148.22 21.7549 148.04 22.0814 147.864 22.4118C147.666 22.7818 147.752 22.8491 148.059 22.5627C148.8 21.8698 149.523 21.1876 150.266 20.5276C151.048 19.8338 151.862 19.1769 152.67 18.5144C152.82 18.3919 153.007 18.3064 153.187 18.2274Z" fill="#2D3142"/>
<path d="M174.274 20.7153C173.123 19.8205 171.939 18.9566 170.704 18.1843C169.446 17.3973 168.337 16.4864 167.479 15.2692C167.36 15.0992 167.218 14.9443 167.072 14.793C166.83 14.5445 166.592 14.3684 166.541 14.3977C166.489 14.4271 166.538 14.7439 166.65 15.1037C166.719 15.3208 166.791 15.5364 166.872 15.749C167.304 16.8649 168.151 17.6787 168.916 18.5573C169.258 18.95 169.553 19.4106 169.756 19.8888C169.927 20.2922 169.755 20.6035 169.223 20.6212C167.582 20.6758 166.112 20.1935 164.959 19.0432C164.502 18.5877 164.311 17.8599 164.02 17.246C163.947 17.0912 163.886 16.9302 163.817 16.7703C163.705 16.5076 163.444 16.6266 163.363 17.038C163.225 17.7435 163.282 18.448 163.438 19.1484C163.836 20.9324 165.079 22.0514 166.91 22.1956C167.967 22.2791 169.038 22.2614 170.1 22.2113C171.975 22.1222 173.753 22.4689 175.452 23.2513C175.575 23.3075 175.701 23.3561 175.842 23.4087C176.06 23.4897 176.146 23.227 175.976 22.8439C175.585 21.9608 174.996 21.2766 174.274 20.7153Z" fill="#2D3142"/>
<path d="M176.908 15.9025C176.935 15.8651 176.832 15.7219 176.676 15.5837C176.581 15.4997 176.484 15.4197 176.378 15.355C175.384 14.7481 174.377 14.1631 173.383 13.5568C173.185 13.4358 172.959 13.2886 172.856 13.0952C172.264 11.9869 171.133 11.6534 170.128 11.1321C169.342 10.7247 168.562 10.3051 167.789 9.87597C167.46 9.69378 167.397 9.45845 167.611 9.0971C168.291 7.95484 168.413 6.73768 168.093 5.44107C167.938 4.81554 167.939 4.15154 167.871 3.50425C167.859 3.38734 167.849 3.26993 167.83 3.151C167.799 2.95716 167.501 3.05028 167.276 3.40404C166.861 4.05539 166.68 4.78821 166.759 5.58581C166.871 6.71187 166.902 7.80909 166.702 8.9397C166.442 10.4079 166.862 10.9985 168.246 11.6164C168.458 11.7111 168.662 11.8229 168.859 11.9494C169.185 12.158 169.082 12.3867 168.665 12.3452C167.7 12.2501 166.81 11.8923 165.926 11.5061C165.542 11.3386 165.225 11.5572 165.418 11.9297C165.628 12.3366 166.005 12.6802 166.483 12.8199C167.368 13.078 168.29 13.2101 169.191 13.4141C169.653 13.5183 170.112 13.6388 170.559 13.7901C171.243 14.0214 171.754 14.4566 172.061 15.1287C172.533 16.1637 173.393 16.767 174.413 17.1759C174.477 17.2012 174.545 17.2113 174.657 17.2285C174.794 17.2498 174.65 17.0428 174.373 16.7285C174.06 16.3742 173.826 16.0083 173.751 15.5741C173.679 15.1611 174.119 14.8362 174.519 14.9632C175.085 15.1439 175.605 15.4577 176.147 15.7052C176.529 15.8798 176.881 15.94 176.908 15.9025Z" fill="#2D3142"/>
<path d="M152.86 9.45478C154.713 10.5657 156.594 10.8643 158.571 9.73414C159.612 9.13898 160.721 8.73866 161.963 8.67135C162.382 8.64857 162.556 8.3687 162.261 8.07061C161.958 7.76544 161.611 7.5544 161.221 7.39953C160.856 7.25428 160.475 7.106 160.09 7.06348C158.136 6.84738 156.841 5.75321 155.82 4.13573C155.005 2.84316 153.96 1.72621 152.444 1.19684C152.314 1.15129 152.183 1.10777 152.049 1.07791C152.021 1.07133 151.988 1.08297 151.939 1.10119C151.879 1.12346 152.143 1.27731 152.486 1.51821C153.876 2.49548 154.362 4.07905 155.034 5.54065C155.368 6.26689 155.811 6.94303 156.198 7.64448C156.322 7.86969 156.443 8.09642 156.571 8.33935C156.767 8.71032 156.597 9.0995 156.182 9.15871C154.755 9.36216 153.504 9.06003 152.291 8.30898C151.934 8.08832 151.768 8.20827 151.982 8.56861C152.212 8.95324 152.495 9.23615 152.86 9.45478Z" fill="#2D3142"/>
<path d="M150.766 17.6192C151.709 17.357 152.396 16.7426 152.921 15.9491C153.735 14.7177 154.679 13.617 155.913 12.7855C155.993 12.7308 156.074 12.6757 156.154 12.6205C156.286 12.5289 156.366 12.4135 156.332 12.3629C156.297 12.3123 155.927 12.2531 155.513 12.3199C154.656 12.458 153.893 12.8675 153.169 13.3817C152.685 13.7243 152.216 14.0861 151.726 14.4202C149.506 15.9369 146.982 15.3053 145.727 12.9267C145.678 12.8346 145.627 12.744 145.567 12.6579C145.467 12.5167 145.313 12.7632 145.302 13.1823C145.264 14.5249 145.578 15.7709 146.579 16.7942C147.765 18.0068 149.234 18.0448 150.766 17.6192Z" fill="#2D3142"/>
<path d="M182.364 20.227C181.336 19.7411 180.459 19.0706 179.779 18.1242C179.622 17.906 179.394 17.739 179.137 17.567C178.788 17.3342 178.515 17.5219 178.236 17.8347C178.169 17.9091 178.093 17.9693 178.011 18.0194C177.652 18.2365 177.594 18.3494 177.954 18.4263C178.172 18.4729 178.362 18.5194 178.58 18.565C179.929 18.8484 180.271 19.3003 180.271 20.6815C180.271 20.8748 180.271 21.0676 180.271 21.2614C180.271 21.5813 180.333 21.8551 180.377 21.8723C180.421 21.8895 180.59 21.7746 180.742 21.6172C180.838 21.517 180.946 21.4279 181.063 21.3844C181.216 21.3277 181.385 21.305 181.555 21.2918C181.829 21.2706 182.088 21.4593 182.132 21.7083C182.164 21.888 182.178 22.054 182.103 22.1537C181.815 22.5368 181.414 22.9422 180.978 23.0803C180.367 23.2747 179.707 22.5555 179.685 21.8171C179.68 21.6213 179.679 21.4254 179.68 21.227C179.682 20.9016 179.373 20.7943 179.09 21.104C178.772 21.4522 178.556 21.8824 178.629 22.1562C178.732 22.5439 178.868 22.9229 179.016 23.3273C179.16 23.7211 178.921 24.0485 178.531 23.8947C178.232 23.7767 177.994 23.5834 177.794 23.2894C177.611 23.0211 177.407 22.7666 177.2 22.5145C176.934 22.1906 176.667 21.9578 176.604 21.9948C176.54 22.0317 176.634 22.3698 176.812 22.7494C177.291 23.7702 177.774 24.799 178.278 25.872C178.457 26.2515 178.906 26.4206 179.281 26.2475C179.514 26.1402 179.735 26.0268 179.929 25.8785C180.542 25.4084 181.228 25.2439 181.964 25.1725C182.703 25.1017 182.687 25.0622 182.677 24.3491C182.668 23.7064 182.772 23.0611 182.844 22.4189C182.886 22.0474 183.007 21.681 183.016 21.31C183.028 20.8348 182.851 20.4573 182.364 20.227Z" fill="#2D3142"/>
<path d="M146.238 9.78733C146.569 10.301 146.914 10.8056 147.243 11.3208C148.347 13.0521 149.601 13.5466 151.58 13.0101C151.959 12.9074 152.355 12.8128 152.694 12.624C154.277 11.7424 156.019 11.5678 157.772 11.3967C159.115 11.2656 160.352 10.8268 161.497 10.137C161.856 9.92094 161.815 9.58135 161.398 9.53985C160.724 9.47254 160.074 9.66435 159.431 9.885C158.91 10.0642 158.409 10.2995 157.893 10.4964C155.444 11.4331 152.55 10.9883 150.888 8.53879C150.852 8.48667 150.804 8.44365 150.725 8.4148C150.616 8.37482 150.584 8.6223 150.667 8.92444C150.718 9.10764 150.772 9.28882 150.841 9.46444C150.933 9.69876 151.118 9.89513 151.243 10.1188C151.911 11.3117 151.888 11.506 150.386 11.6852C149.272 11.8178 148.47 11.174 147.763 10.4291C147.167 9.79998 146.638 9.10612 146.049 8.46895C145.9 8.30852 145.736 8.16378 145.566 8.02308C145.286 7.79129 145.027 7.63238 144.99 7.66679C144.953 7.70121 145.105 8.01499 145.331 8.36874C145.631 8.84194 145.933 9.31565 146.238 9.78733Z" fill="#2D3142"/>
<path d="M157.523 1.37048C157.954 1.8037 158.472 2.17416 158.808 2.66963C159.137 3.15497 159.327 3.75014 159.499 4.32152C159.612 4.69856 159.388 4.8762 158.966 4.87114C158.6 4.86658 158.321 4.75069 158.099 4.55179C157.788 4.27141 157.625 3.95561 157.573 3.98142C157.521 4.00723 157.558 4.28457 157.658 4.60038C157.718 4.79218 157.784 4.98096 157.874 5.1591C158.469 6.35247 159.992 6.98712 161.182 6.56807C161.837 6.3378 162.222 5.83879 162.241 5.15404C162.28 3.72433 161.697 2.63167 160.429 1.94338C159.91 1.66149 159.349 1.45601 158.834 1.16653C158.225 0.824406 157.629 0.460524 157.033 0.0986669C156.675 -0.118954 156.468 0.0424904 156.693 0.39625C156.917 0.746974 157.216 1.06176 157.523 1.37048Z" fill="#2D3142"/>
<path d="M169.844 15.8939C170.836 16.2947 171.501 17.0751 172.238 17.7877C172.403 17.9471 172.594 18.0802 172.792 18.2062C173.117 18.4122 173.422 18.5317 173.472 18.4755C173.523 18.4198 173.277 18.187 172.97 17.9011C172.306 17.2811 171.863 16.5164 171.573 15.6322C171.443 15.2339 171.082 15.1231 170.664 15.1484C170.323 15.1692 170.027 15.0371 169.746 14.8559C169.393 14.6292 169.081 14.7648 169.233 15.156C169.361 15.487 169.584 15.7886 169.844 15.8939Z" fill="#2D3142"/>
</svg>
