<svg class="svg-img" width="766" height="500" viewBox="0 0 766 500" fill="none" xmlns="http://www.w3.org/2000/svg">
<g clip-path="url(#clip0_443_587)">

<path d="M408.583 369.709L406.515 371.319L402.072 375.767L401.536 376.227L401 376.457L400.54 376.381L400.004 376.457L399.698 376.611L399.391 376.841L396.021 380.522L395.638 381.135L395.331 381.595L395.255 381.902V382.209L395.331 382.516L395.408 382.746L395.638 383.282L395.944 383.743L397.323 385.506L397.476 385.736L397.629 385.966V386.35L397.553 386.81L397.323 387.04L397.093 387.193L389.663 389.877L387.288 390.721L381.16 393.252L379.092 394.632L375.032 399.157L374.343 399.847L372.964 398.083L371.892 397.469L370.59 397.623L367.143 399.31L365.994 399.617L364.691 399.31L363.313 398.62L356.189 393.482L349.984 389.034L345.005 385.506L342.324 382.669L337.575 375.997L334.741 373.236L328.536 368.865L313.829 358.359L306.629 353.144L300.577 348.773L295.368 345.092L292.764 342.485L292.304 342.178L289.087 338.114L288.628 336.58L287.862 333.282L287.708 331.979L287.862 330.752L288.245 329.678L288.474 328.604L288.321 327.377L286.942 324.387L286.789 323.16V321.626L286.559 320.476L286.253 319.402L285.104 317.101L284.798 316.028L284.644 313.574L284.261 313.037L280.585 310.89L278.44 310.276L277.444 309.509L277.291 309.126L286.559 297.546L288.857 292.562L288.321 290.568L286.866 288.344L279.589 280.138L289.623 275.307V274.463L276.984 256.825L292.764 250.844L296.517 250.92L297.896 254.218L299.045 256.135L306.475 265.031L312.527 275.69L313.599 276.304L317.506 277.147L323.327 279.448L330.221 283.359L343.626 291.641L344.622 293.405L346.231 295.016L346.154 296.166L351.516 294.325L354.657 289.571L357.338 284.049L358.104 282.899L358.946 282.132L359.866 281.825L360.708 282.055L361.551 282.822L362.47 284.203L362.7 286.197L362.776 290.031L363.389 291.335L365.304 292.025L377.33 293.482L378.326 292.485L379.705 287.27L380.548 286.81L382.08 286.197L387.978 285.966L389.893 285.583L391.348 284.97L392.727 282.899L393.263 282.976L393.646 284.356L394.642 290.338L395.025 291.871L395.638 293.635L397.17 294.862L398.702 295.782L403.145 296.856L416.626 297.776L418.771 297.163L417.699 300.844L417.469 302.301L417.392 303.835V305.292L417.469 306.519L417.699 307.209L417.622 307.899L417.009 307.822L414.711 307.362L414.252 307.285L413.869 307.439L413.486 307.746L413.026 308.512L412.949 309.203L411.724 312.96L410.728 314.111L409.962 314.877L408.966 318.098L408.43 319.095L403.221 319.019L402.225 318.712L401.23 318.022L400.387 317.255L399.468 317.025H398.472L396.94 317.255L396.174 317.715L395.791 318.175L395.638 318.712L395.561 319.325V319.785L395.791 320.936L396.94 322.086L396.174 324.233L395.791 324.617L395.561 324.693V324.847L395.638 325.077L396.097 325.92L397.4 327.224L398.089 328.144L398.319 328.528L398.242 328.681L396.94 328.835L396.634 328.911L396.327 329.141L396.021 329.371L395.561 329.448L394.948 329.985L392.804 334.279L392.191 335.123L391.425 335.89L390.582 336.503L387.901 337.73L387.518 338.497L387.212 338.881L387.059 339.111L385.603 340.951L384.837 342.562L384.224 344.019L384.914 345.476L388.131 350L389.433 350.844L391.501 351.994L391.578 352.301L391.808 352.838L391.961 353.298L392.574 353.681H393.416L395.331 352.838L396.021 352.914L396.404 353.604L401.766 356.135L402.532 357.439L402.915 358.743V359.739L403.068 360.966L403.451 362.193L404.294 362.654L405.366 363.037L406.055 363.42L406.821 364.264L407.511 365.184L407.741 365.568L407.97 366.181L408.43 367.715L408.507 368.098L408.583 369.709Z" class="path1" fill="#322"
stroke="white" stroke-width="2" stroke-linecap="round" stroke-linejoin="round"/>
<path d="M279.59 280.138L286.867 288.344L288.322 290.567L288.859 292.561L286.561 297.546L277.292 309.126L277.215 309.049L276.832 307.669L276.603 307.132L274.917 304.908L274.305 303.681L273.385 300.077L272.849 299.233L271.394 297.623L270.934 296.856L270.551 295.629L270.092 292.945L268.636 287.96L268.177 286.81L268.483 286.35L268.253 285.506L268.177 281.365L268.023 280.138L267.64 279.141L264.347 273.62L263.504 272.699L253.546 265.337L249.716 263.65L245.35 262.5L243.741 262.27L242.745 262.807L242.133 264.034L241.673 266.104L240.601 266.718L239.758 268.635L238.456 270.015L236.924 270.782L235.239 270.859L233.477 270.092L228.881 266.794H228.038L225.434 267.255L225.204 266.718L225.051 266.181L224.898 266.028L224.055 267.485L223.749 267.791L223.442 268.098L221.297 265.874L218.233 265.107L209.271 265.644L203.833 267.485H201.152L199.62 267.101L198.394 266.181L195.943 263.727L193.262 261.733L188.972 259.509L184.07 256.979L182.844 255.752L182.538 254.371L183.074 249.54L183.457 248.543L183.993 247.699L184.759 247.009L186.598 246.089L187.21 245.399L186.827 244.248L183.84 240.031L182.538 237.423L182.078 235.276L183.227 233.666L184.453 232.822L185.832 232.669L187.517 233.206L189.049 234.202L189.968 234.586L190.657 234.509L191.117 233.742L191.04 232.899L190.657 232.055L190.121 231.365L189.508 230.828L187.364 229.525L186.674 228.834L186.215 228.067L186.751 227.531L187.21 226.15L187.134 225.537L186.674 224.463L186.521 224.233L186.444 223.926L186.598 223.696L186.904 223.466L187.593 223.313L188.819 223.236L189.738 222.853L192.036 221.242L192.879 220.475L193.109 220.322L193.875 220.245L194.794 220.936L195.253 221.242L197.475 221.779L199.696 222.009L200.309 222.546L200.462 223.773V226.457L200.845 227.454L201.994 229.294L202.53 230.828L203.756 233.052L204.369 233.896L205.135 234.433L206.131 234.663H208.199L208.965 235.123L209.424 236.12L210.19 238.42L211.339 240.491L212.795 242.101L223.289 251.687L224.438 251.917L225.051 252.147L225.51 252.531L227.119 254.294L228.498 255.598L229.494 255.982L232.098 256.442L232.941 256.979L235.315 259.586L235.851 260.429L236.388 262.193L237.077 262.5L237.383 262.73L238.379 263.113L239.528 263.037L240.294 262.423L242.056 258.972L242.822 258.129L243.511 257.592L244.277 257.209L245.197 256.979H247.571L256.074 259.049L258.219 259.969L260.287 261.196L262.891 263.19L270.475 271.626L275.76 280.138L275.99 280.291L276.603 280.675L277.215 280.905L279.59 280.138Z" fill="#D4D3C4" stroke="white" stroke-width="2" stroke-linecap="round" stroke-linejoin="round"/>
<path d="M270.168 130.675L274.994 138.881L277.215 140.951L289.241 144.249L289.931 144.632V145.246L289.624 146.012L277.521 168.942L266.108 190.951L263.657 196.703L262.661 209.203V209.893L262.814 210.506L267.87 219.862L268.789 221.779L268.559 222.086L268.023 222.623L258.448 228.068L257.529 228.911V229.678L257.912 230.522L276.985 256.825L289.624 274.463V275.307L279.59 280.138L277.215 280.905L276.602 280.675L275.989 280.292L275.76 280.138L270.474 271.626L262.891 263.19L260.286 261.197L258.218 259.97L256.073 259.049L247.571 256.979H245.196L244.277 257.209L243.511 257.592L242.822 258.129L242.056 258.973L240.294 262.424L239.528 263.037L238.379 263.114L237.383 262.73L237.077 262.5L236.387 262.193L235.851 260.43L235.315 259.586L232.94 256.979L232.098 256.442L229.493 255.982L228.497 255.598L227.119 254.295L225.51 252.531L225.05 252.147L224.438 251.917L223.289 251.687L212.794 242.101L211.339 240.491L210.19 238.42L209.424 236.12L208.964 235.123L208.198 234.663H206.13L205.134 234.433L204.368 233.896L203.756 233.052L202.53 230.828L201.994 229.295L200.845 227.454L200.462 226.457V223.773L200.309 222.546L199.696 222.009L197.474 221.779L195.253 221.243L194.793 220.936L193.874 220.246L193.108 220.322L192.878 220.476L192.036 221.243L189.738 222.853L188.819 223.236L187.593 223.313L186.904 223.466L186.597 223.697L186.444 223.927L186.521 224.233L186.674 224.463L187.133 225.537L187.21 226.151L186.75 227.531L186.214 228.068L185.142 226.534L183.84 225.384L179.167 223.62L176.869 223.697L176.256 223.39L175.72 222.546L175.797 221.779L176.333 221.166L177.099 220.936H177.175L179.78 219.939L179.627 217.562L178.784 214.571L179.167 211.81L179.933 211.273L180.852 210.89L181.542 210.353L181.695 209.356L181.159 208.589L180.163 207.976L178.171 207.209L176.563 205.752L175.337 203.835L173.958 202.301L171.967 202.071L169.975 202.301L166.068 201.917L156.647 203.374L154.349 203.298L153.276 202.914L151.514 200.997L150.442 200.614L148.144 200.384L146.918 199.617L146.306 198.543L145.769 193.942L145.386 192.792L144.697 191.795L141.863 188.804L140.79 188.114L139.718 188.267L138.416 188.881L137.114 189.264L135.811 189.341L133.82 188.957L130.679 187.577L127.692 184.739L118.117 173.466L117.044 172.776L116.202 174.157L115.589 179.295L114.67 181.059L112.831 181.672L110.533 181.519L108.235 180.982L103.486 178.988H102.337L101.571 179.218L99.1966 180.675L97.5114 181.442L96.6688 182.055L96.2858 182.899L96.5156 184.126L97.3582 184.816L102.95 187.5L104.482 188.727L105.861 190.798L107.086 193.635L110.38 199.003L112.142 201.151L112.678 201.611L112.908 202.147L112.678 202.684L112.142 202.991L109.308 203.451L108.542 203.221L108.082 202.454V201.534L108.312 200.46L108.465 199.387L108.006 197.239L106.857 195.706L105.325 194.555L100.958 192.485L99.9626 192.255L99.12 192.408L97.5114 193.098L96.822 193.175L96.056 192.792L95.0602 191.258L94.4474 190.644L93.6048 190.338L92.609 190.261L91.6132 190.491L90.7706 190.874L90.311 191.411L89.928 192.178L88.779 193.482L87.5534 194.019L86.7874 194.632L87.0938 196.243L88.013 198.313L88.0896 199.233L87.7066 200.69L85.8682 204.832L85.2554 205.522L83.5702 206.135L83.1872 206.902L83.4936 207.822L84.1064 208.512L84.183 209.049L83.2638 209.739L82.3446 209.97L79.3572 209.816L78.5146 210.046L75.9868 211.273L74.991 211.427L74.6846 208.896L74.3016 207.362L73.6888 206.135L72.8462 205.138L71.7738 204.295L69.3992 202.991L67.4842 202.761L67.0246 202.608L66.565 202.224L65.9522 201.764L65.033 200.307L64.4968 199.847L63.7308 199.693L62.5818 199.77L60.054 200.614L58.139 201.687L56.99 202.761L56.5304 203.221L55.1516 206.135L49.5598 223.697L49.4066 224.617V224.924L45.4234 226.841L44.1212 228.605V230.905L45.117 235.583L44.9638 237.884L44.6574 239.801L44.5808 241.641L45.4234 243.789L46.4192 245.399L46.8788 247.009L47.032 248.697V250.767L47.2618 252.454L47.798 254.065L48.7172 255.598L49.6364 256.672L50.3258 257.132L50.9386 257.439L53.2366 257.976L53.543 258.282L53.4664 258.666L52.9302 259.279L52.011 259.97L49.9428 260.966L49.0236 262.04L47.6448 264.494L46.8022 265.031L41.3636 263.881L37.1506 263.037L27.1926 262.424L16.392 261.887L8.11923 261.427L0.918825 261.043L0.842225 233.666V219.939V206.135V192.332V178.451V164.494V150.46V136.427V122.316L0.765625 108.206V94.0186V79.6781V65.4143V50.9972V36.5033L0.918825 36.4266L5.05522 35.0462L9.19163 33.7425L13.4046 32.3622L21.754 29.6781L25.8904 28.2978L30.1034 26.9941L34.2398 25.6137L42.5892 22.9297L46.8022 21.626L50.9386 20.2456L55.1516 18.9419L59.288 17.5616L67.6374 14.8775L73.2292 13.1137L78.7444 11.4266L84.3362 9.73948L89.928 7.97568L92.4558 7.20881L95.0602 6.44194L100.192 4.90819L102.873 4.14132L108.235 2.60758L110.916 1.84071L114.517 0.76709L115.589 0.843777L116.815 1.38059L117.198 1.68734L117.121 1.76402L116.432 3.60451L116.278 4.75482L116.049 5.445L115.436 6.74868L115.283 7.51556V9.27936L115.129 9.73948L114.976 9.89286L114.593 10.1229L114.44 10.2763L114.287 10.5064L113.904 11.6567L112.295 13.8806L112.065 14.264L111.989 14.4174L111.529 14.8775L109.461 17.7916L109.231 18.2518L109.155 18.7119L109.001 20.3223L108.465 22.0094L107.852 23.3131L107.623 24.31L107.393 26.3039L107.163 27.3008L106.78 28.2978L106.32 29.218L106.014 29.6014L105.401 30.2149L105.095 30.5984L104.942 31.0585L104.865 31.5186L104.712 32.4389L104.559 33.3591L101.571 40.6444L101.188 43.4818L101.035 45.3223L101.112 47.1628L102.031 49.8468L102.95 52.2241L104.176 54.218L104.942 56.9787L104.865 58.4358L104.559 59.4327L104.176 60.353L103.256 60.9665L102.184 62.5002L101.954 63.5738L101.648 64.1873L101.418 64.6475L101.341 65.1843L101.648 67.4849L102.414 70.0156L103.563 71.0892L104.405 72.0094L106.167 72.3162L108.312 72.1628L110.533 70.9358L112.831 69.0186L114.823 67.1781L116.125 65.491L116.815 64.4174L117.351 63.4205L118.27 62.3468L119.342 60.8131L120.338 59.126L121.104 57.9757L121.87 56.9021L122.1 56.1352L121.487 54.9849L120.568 54.6014L119.496 54.1413L120.108 55.5984L119.342 55.8284L118.27 55.5217L117.81 54.7548L118.27 52.3775L118.806 51.3039L119.113 50.537L120.032 50.2303L120.645 49.9235L121.564 50.2303L121.794 51.4573L122.023 52.2241L122.636 52.8376L123.555 53.0677L125.011 52.6843L125.777 51.764L125.547 50.537L124.551 49.6168L124.015 48.6965L124.475 47.0861L124.551 45.0922L124.015 43.0217L123.632 41.1812V39.8775L124.551 39.6475L125.777 39.4174L126.39 38.037L126.619 36.5033L127.002 35.353L127.309 33.5125L126.313 32.899L125.317 33.6659L124.551 35.1996L122.866 36.1965L121.794 36.3499L120.645 37.2702L119.342 36.3499L119.266 34.8929L119.802 33.3591L120.568 31.5953L121.257 30.0616L122.636 28.5278L123.326 27.2241L124.551 25.9972L125.853 24.6935L126.849 24.2333L124.781 22.6996L123.632 21.2425L122.636 17.3315L122.253 14.8008L122.1 13.1137L122.253 11.1965L122.866 8.97261L123.555 7.13212L123.938 6.21188L128.305 9.20267L133.973 13.037L137.88 15.6444L148.374 22.853L155.191 27.3775L155.038 27.6843L153.966 29.1413L153.353 30.3683L152.51 33.2057L151.821 35.0462L150.519 37.2702L149.523 38.4972L149.063 40.7211L148.527 42.8683L147.838 44.4787L147.072 45.8591L145.54 47.9297L144.85 49.4634L144.314 50.9972L144.008 52.5309L144.544 55.6751L145.693 58.3591L147.072 60.1996L150.748 64.4174L156.264 69.9389L159.174 72.7763L161.472 74.4634L163.77 76.3039L164.307 76.8407L164.46 77.6843L164.23 79.4481L163.311 80.8284L161.243 82.2088L160.553 84.0493L159.787 85.8898L158.791 87.7303L159.481 89.4174L161.702 89.8008L163.694 89.6475L165.456 89.1106L166.605 88.037L168.213 87.8837L169.975 88.1904L171.66 87.5769L173.499 86.3499L176.026 84.6628L177.175 83.1291L177.405 82.3622L176.792 81.672L175.95 81.5953L175.184 81.2886L174.724 80.8284L174.571 80.2916V79.6014L174.801 79.1413L175.107 78.3745L175.643 77.9143L176.026 77.4542H176.792L177.941 77.5309L179.167 77.761L180.01 77.5309L180.699 76.8407L181.005 75.9971L181.618 73.9266L181.925 71.9327L181.695 69.9389L181.159 66.6413L180.393 64.1106L179.397 62.0401L179.09 60.0462L179.014 58.3591L179.78 57.2855L180.546 56.672L181.388 55.6751L182.001 54.2947L182.384 52.5309V50.2303L182.461 47.2395V45.7057L183.303 46.3192L191.959 52.0708L200.079 57.5922L207.586 62.5002L214.02 66.8714L223.289 73.0063L226.046 74.8468L227.195 76.1505L227.961 77.8376L228.268 79.2947L228.574 82.5156L229.034 83.9726L231.638 88.1904L236.694 93.7886L239.145 96.3959L241.596 99.08L244.737 102.684L247.264 105.598L252.397 111.58L254.924 114.494L257.452 117.408L259.98 120.322L264.959 126.074L268.329 129.908L270.091 130.675H270.168Z" fill="#D4D3C4" stroke="white" stroke-width="2" stroke-linecap="round" stroke-linejoin="round"/>
<path d="M480.742 271.012V271.242L475.303 273.466L474.92 274.386L474.384 275.077L475.073 283.359L475.15 283.666L475.303 283.896L475.533 284.433L475.916 284.893L476.222 285.046L476.835 285.429L480.818 286.503L481.048 286.733L481.201 286.963L481.355 287.193V287.653V288.19L481.201 289.264V290.261L481.278 290.567L481.661 291.564L482.657 293.328L481.431 296.472L474.614 309.739L473.771 308.896L473.235 308.206L473.082 307.975L473.005 307.745L472.929 307.515V307.209L473.235 306.288V305.752L473.158 305.521L473.082 305.291L471.55 303.528L470.248 302.377L469.788 302.147L469.405 302.071L468.945 302.224L465.728 304.448L464.732 304.908L463.813 305.061L463.124 304.908L462.281 304.601L461.515 304.141L460.596 303.451L459.907 303.144L459.294 303.067L458.681 303.221L458.145 303.681L457.609 304.218L457.226 304.908L456.843 305.675L456.306 307.285L456.153 308.206V309.126L456.536 310.199L456.843 310.66L457.072 311.12L456.996 311.58L456.689 312.27L456.383 312.577L455.464 312.96L455.234 313.344V313.804L455.77 315.184L455.923 317.255L455.617 318.558L455.004 319.862L454.928 320.245L455.004 320.629L455.234 320.936L455.847 321.549V322.086L455.617 322.469L454.468 324.08L454.085 324.847L453.855 325.613L453.472 326.917L452.323 329.678L452.247 330.061L452.323 330.445L452.553 330.521H452.859L453.702 330.368H454.085L454.468 330.445L454.851 330.598L455.081 330.982L455.234 331.288V331.748L455.004 332.285L454.545 332.745L451.71 335.429L451.174 335.736L441.599 337.73L439.684 337.347L437.769 336.12L436.85 336.426L436.007 335.966L435.165 335.353L433.326 334.663L432.637 333.896L431.488 332.285L431.028 332.209L430.875 332.132L430.033 331.979L425.973 330.138H425.283L424.977 330.291L424.747 330.521L424.517 331.135L424.364 331.518L424.288 331.748L424.364 332.515L424.211 333.666V333.972L424.134 334.279L423.981 334.433L423.905 334.739L422.756 336.426L422.679 336.81L422.832 337.04H423.139L423.445 337.117L423.675 337.27L423.905 337.5L423.981 337.807L423.905 338.113L423.751 338.574L423.062 340.107L422.909 340.491L422.143 343.482L421.836 344.172L421.453 344.402L420.917 344.632H419.615L418.389 344.479L417.087 343.865L415.555 343.021L415.249 342.945L414.942 343.098L414.713 343.482L414.636 343.865L414.483 344.862L414.1 345.169L413.717 345.475L411.036 346.166L408.891 346.472L408.431 346.549L408.202 346.702L407.972 346.933L407.895 347.239L408.202 347.929L409.58 349.463L410.423 350.23L410.806 350.614L411.189 351.15L412.491 356.058L412.568 356.518L412.491 357.362L412.415 357.899L412.261 358.359L410.959 361.35V361.656L411.495 363.42L413.87 368.175L413.027 368.712L408.585 369.709L408.508 368.098L408.431 367.715L407.972 366.181L407.742 365.567L407.512 365.184L406.823 364.264L406.057 363.42L405.367 363.037L404.295 362.653L403.452 362.193L403.069 360.966L402.916 359.739V358.742L402.533 357.439L401.767 356.135L396.405 353.604L396.022 352.914L395.333 352.837L393.418 353.681H392.575L391.962 353.298L391.809 352.837L391.579 352.301L391.503 351.994L389.434 350.844L388.132 350L384.915 345.475L384.226 344.018L384.838 342.561L385.604 340.951L387.06 339.11L387.213 338.88L387.519 338.497L387.902 337.73L390.583 336.503L391.426 335.89L392.192 335.123L392.805 334.279L394.95 329.985L395.563 329.448L396.022 329.371L396.329 329.141L396.635 328.911L396.941 328.834L398.244 328.681L398.32 328.528L398.09 328.144L397.401 327.224L396.099 325.92L395.639 325.077L395.563 324.847V324.693L395.792 324.617L396.175 324.233L396.941 322.086L395.792 320.936L395.563 319.785V319.325L395.639 318.712L395.792 318.175L396.175 317.715L396.941 317.255L398.473 317.025H399.469L400.388 317.255L401.231 318.021L402.227 318.712L403.223 319.018L408.431 319.095L408.968 318.098L409.963 314.877L410.729 314.11L411.725 312.96L412.951 309.202L413.027 308.512L413.487 307.745L413.87 307.439L414.253 307.285L414.713 307.362L417.011 307.822L417.623 307.899L417.7 307.209L417.47 306.518L417.394 305.291V303.834L417.47 302.301L417.7 300.844L418.772 297.163L416.628 297.776L403.146 296.856L398.703 295.782L397.171 294.862L395.639 293.635L395.026 291.871L394.643 290.337L393.648 284.356L393.265 282.975L392.728 282.899L391.349 284.969L389.894 285.583L387.979 285.966L382.081 286.196L380.549 286.81L379.706 287.27L378.327 292.485L377.332 293.482L365.305 292.025L363.39 291.334L362.778 290.031L362.701 286.196L362.471 284.202L361.552 282.822L360.709 282.055L359.867 281.825L358.948 282.132L358.105 282.899L357.339 284.049L354.658 289.571L351.517 294.325L346.155 296.166L346.232 295.015L344.623 293.405L343.628 291.641L330.223 283.359L323.329 279.448L317.507 277.147L313.6 276.304L312.528 275.69L306.477 265.031L299.046 256.135L297.897 254.218L296.519 250.92L292.765 250.844L276.986 256.825L257.912 230.521L257.529 229.678V228.911L258.448 228.067L268.023 222.623L268.56 222.086L268.789 221.779L267.87 219.862L262.815 210.506L262.661 209.893V209.202L263.657 196.702L266.108 190.951L277.522 168.942L289.625 146.012L289.931 145.245V144.632L289.242 144.248L277.215 140.951L274.994 138.88L270.168 130.675L273.845 129.985L276.986 129.448L282.654 128.374L287.71 127.454L290.237 126.994L294.297 126.304L298.357 125.613L318.656 122.316L322.716 121.626L329.533 122.316L336.274 122.929L343.091 123.543L349.832 124.156L356.037 124.693L362.165 125.23L368.369 125.844L374.497 126.38L376.949 126.61L378.481 126.15L383 123.696L387.29 121.319L391.732 118.788L396.022 116.411L396.865 116.104L397.631 115.798L399.086 116.028L399.776 116.718L400.542 117.331L405.367 123.62L410.117 129.908L412.338 132.285L414.559 134.586L419.155 137.5L423.751 140.337L425.513 141.948L429.267 149.77L431.718 154.755L435.012 161.656L437.922 167.561L438.688 167.638L445.123 164.187L451.481 160.66L450.561 175.767L449.566 190.798L449.336 194.018L448.953 195.092L447.88 195.475L447.651 196.319L447.421 208.052L447.268 219.709L447.421 220.399L447.804 220.706H453.166H457.992L462.894 220.782H468.256L468.562 220.706L468.945 220.782H469.252L469.482 220.936L470.248 228.528L471.014 236.043L472.392 243.405L473.848 250.767L475.763 259.586L477.678 268.252L478.674 269.479L479.669 270.706L480.742 271.012Z" fill="#D4D3C4" stroke="white" stroke-width="2" stroke-linecap="round" stroke-linejoin="round"/>
<path d="M474.613 309.739L474.996 310.046L480.588 310.276L482.426 310.813L483.116 310.966L483.882 311.119L484.878 311.043L486.027 310.813L486.333 310.736L486.563 310.966L486.793 311.273L487.099 312.04L487.329 312.576L487.405 313.19L487.329 313.957L487.099 314.8L486.716 315.721L486.639 316.027L486.563 316.411V316.794L486.639 319.555L486.716 320.552L487.329 323.619L487.482 323.849L487.635 324.156L487.942 324.463L488.861 324.846L489.091 325.076L489.244 325.307V325.767L489.091 326.073V326.533L489.244 326.994L490.469 328.451L490.393 329.831L490.24 330.368L490.086 330.521L489.857 330.751L489.014 330.981L488.784 331.135L488.708 331.441L488.631 331.748L488.861 334.356L489.014 334.662L489.167 334.892L489.703 335.046H490.086L490.469 334.969L490.699 334.892L491.542 334.509L491.772 334.432H492.078H492.384L492.691 334.662L492.921 335.046L492.997 335.813L492.844 336.196V336.733L492.921 337.04L494.453 338.727L495.065 338.497H495.295L495.448 338.42L495.985 339.264L499.508 340.261L500.044 340.337L500.734 340.261L501.04 340.184H501.347L502.113 340.644L502.419 340.797L502.802 340.874L503.262 340.721L504.257 340.797L511.994 342.254L512.76 343.481L513.909 348.926L513.756 349.386L513.066 349.54H512.76L511.534 349.846L510.615 350.153L509.16 350.92L508.47 351.457L508.164 351.764L508.087 352.07L507.934 352.454V353.297V353.834L508.011 354.218L508.087 354.524L508.164 355.061V355.445V356.135L508.087 356.441L507.858 356.748L507.475 356.902L507.092 356.978H505.713L505.177 357.132L504.87 357.668L504.717 358.129L504.64 362.116L505.1 363.113L505.713 363.88L507.551 365.491L510.922 368.481L510.539 369.018L510.002 371.242L509.696 373.543L509.619 375.69L509.083 377.607L508.777 379.524L508.47 379.678L508.011 379.524L507.551 379.678L507.475 379.754L496.827 377.07L494.453 376.917V377.224L494.529 377.837V378.067V378.374L494.376 378.681L494.223 378.911L493.993 379.141L493.763 379.218L493.227 379.371L488.325 379.524L487.712 379.448L487.405 379.294L487.099 379.141L486.793 378.911L486.639 378.604L486.563 378.144L486.639 377.224L486.946 375.69L486.793 374.846L485.873 373.159L484.954 373.006L481.124 372.239L477.677 371.702H477.064L476.298 371.932L475.609 372.316L475.226 372.622L474.92 372.929L473.464 375.153L473.081 375.537L469.711 376.917H469.404L468.792 376.764L468.102 376.38L465.421 374.31L464.349 373.543L463.506 373.619L457.072 375.076L456.842 375.153L452.552 377.224L451.633 377.837L450.944 378.067H449.335L446.348 377.3L446.118 377.07L445.888 376.687L445.812 376.073L445.735 375.613V375.23L445.812 374.31V373.466L445.658 373.083L445.505 372.776L444.433 371.932L443.054 371.012L440.756 368.711L440.296 368.098L439.99 367.638L439.913 367.331L439.454 365.414L439.377 365.184L439.224 364.954L438.994 364.724L438.764 364.57L438.458 364.494L438.075 364.417H436.696L436.16 364.494L435.777 364.724L435.7 365.03V365.337V366.181V366.487L435.624 366.794L435.471 367.024L435.317 367.254L434.322 367.945L433.402 368.481L432.866 368.635L413.869 368.175L411.495 363.42L410.959 361.656V361.349L412.261 358.359L412.414 357.899L412.491 357.362L412.567 356.518L412.491 356.058L411.188 351.15L410.805 350.613L410.422 350.23L409.58 349.463L408.201 347.929L407.895 347.239L407.971 346.932L408.201 346.702L408.431 346.549L408.89 346.472L411.035 346.165L413.716 345.475L414.099 345.168L414.482 344.862L414.635 343.865L414.712 343.481L414.942 343.098L415.248 342.945L415.555 343.021L417.087 343.865L418.389 344.478L419.614 344.632H420.917L421.453 344.402L421.836 344.172L422.142 343.481L422.908 340.491L423.061 340.107L423.751 338.573L423.904 338.113L423.981 337.807L423.904 337.5L423.674 337.27L423.444 337.116L423.138 337.04H422.832L422.678 336.81L422.755 336.426L423.904 334.739L423.981 334.432L424.134 334.279L424.21 333.972V333.665L424.364 332.515L424.287 331.748L424.364 331.518L424.517 331.135L424.747 330.521L424.976 330.291L425.283 330.138H425.972L430.032 331.978L430.875 332.132L431.028 332.208L431.487 332.285L432.636 333.895L433.326 334.662L435.164 335.353L436.007 335.966L436.849 336.426L437.769 336.119L439.684 337.346L441.599 337.73L451.174 335.736L451.71 335.429L454.544 332.745L455.004 332.285L455.233 331.748V331.288L455.08 330.981L454.85 330.598L454.467 330.445L454.084 330.368H453.701L452.859 330.521H452.552L452.323 330.445L452.246 330.061L452.323 329.678L453.472 326.917L453.855 325.613L454.084 324.846L454.467 324.08L455.616 322.469L455.846 322.086V321.549L455.233 320.935L455.004 320.629L454.927 320.245L455.004 319.862L455.616 318.558L455.923 317.254L455.77 315.184L455.233 313.803V313.343L455.463 312.96L456.382 312.576L456.689 312.27L456.995 311.58L457.072 311.119L456.842 310.659L456.536 310.199L456.153 309.126V308.205L456.306 307.285L456.842 305.675L457.225 304.908L457.608 304.218L458.144 303.681L458.68 303.221L459.293 303.067L459.906 303.144L460.595 303.451L461.515 304.141L462.281 304.601L463.123 304.908L463.813 305.061L464.732 304.908L465.728 304.448L468.945 302.224L469.404 302.07L469.787 302.147L470.247 302.377L471.549 303.527L473.081 305.291L473.158 305.521L473.234 305.751V306.288L472.928 307.208V307.515L473.005 307.745L473.081 307.975L473.234 308.205L473.771 308.895L474.613 309.739Z" fill="#D4D3C4" stroke="white" stroke-width="2" stroke-linecap="round" stroke-linejoin="round"/>
<path d="M507.475 379.754L507.168 380.061L506.938 380.291L506.862 380.675L506.785 381.518L507.092 383.819L508.317 384.969L513.756 386.886L517.356 387.04L519.118 387.73L519.271 387.96L519.654 388.65L519.884 388.88L520.19 388.957L520.956 388.803L521.263 388.88L521.646 389.57L521.722 390.337L521.186 394.785L521.416 396.242H521.492L520.803 396.779L520.037 397.086L516.82 397.239L516.207 397.392L515.747 397.623L515.441 397.776L515.211 398.006L514.828 398.313L514.598 398.773L514.445 399.156V399.616L514.828 400.997L515.058 403.067L516.13 404.984L516.207 405.215L516.284 405.521V405.905L516.207 406.211L516.13 406.595V406.902L516.054 407.208V407.515L516.13 407.822V408.129L516.284 408.359L516.36 408.972L516.437 409.279V409.586L516.284 410.046L516.054 410.506L515.594 411.196L515.364 411.656L515.288 412.116V413.113L515.211 413.343L515.058 413.573L514.752 413.497L514.522 413.343L513.679 412.5L513.526 412.346L513.296 412.193L512.99 412.04L512.3 411.886L511.611 411.81H510.998L510.385 411.963L509.773 412.27L509.39 412.576L509.083 412.883L508.853 413.113L506.172 418.328L505.713 418.942L504.947 419.785L504.487 420.092L503.798 420.475L502.036 420.935L501.73 421.702L501.193 422.546L500.427 423.389L498.742 424.77L498.512 425.153L498.206 425.92L497.976 426.84L497.517 429.754L497.134 431.135L497.057 431.442L496.444 432.055L491.542 436.043L489.014 437.423L488.478 437.576L486.869 437.883L486.486 438.113L486.103 438.65L485.414 439.8L484.954 440.951L484.724 441.564L484.495 442.254L484.188 442.945L483.882 443.558L478.443 448.619L478.06 449.156L477.83 450.077L477.601 452.3L477.371 453.067L476.681 454.448L475.303 455.291L474.766 453.757L473.311 452.684L471.702 451.84L469.941 451.38H466.57L465.191 450.997L460.672 448.849L458.604 446.242L457.302 444.938L455.846 444.325L452.935 443.481L450.178 441.257L448.952 440.567L445.965 440.107L441.522 437.96L439.99 437.807L438.764 438.343L436.62 440.03L435.471 440.721L432.407 440.951L429.419 439.954L422.066 434.969L417.623 431.978L411.648 427.914L407.435 424.003L401.46 418.635L398.473 416.718L391.962 414.417L386.217 411.119L376.872 403.144L374.344 399.846L375.033 399.156L379.093 394.632L381.161 393.251L387.289 390.721L389.664 389.877L397.094 387.193L397.324 387.04L397.554 386.81L397.63 386.349V385.966L397.477 385.736L397.324 385.506L395.945 383.742L395.639 383.282L395.409 382.745L395.332 382.515L395.256 382.208V381.902L395.332 381.595L395.639 381.135L396.022 380.521L399.392 376.84L399.698 376.61L400.005 376.457L400.541 376.38L401.001 376.457L401.537 376.227L402.073 375.767L406.516 371.319L408.584 369.708L413.027 368.711L413.869 368.175L432.866 368.635L433.402 368.481L434.322 367.945L435.317 367.254L435.471 367.024L435.624 366.794L435.7 366.488V366.181V365.337V365.03L435.777 364.724L436.16 364.494L436.696 364.417H438.075L438.458 364.494L438.764 364.57L438.994 364.724L439.224 364.954L439.377 365.184L439.454 365.414L439.913 367.331L439.99 367.638L440.296 368.098L440.756 368.711L443.054 371.012L444.433 371.932L445.505 372.776L445.658 373.083L445.812 373.466V374.31L445.735 375.23V375.613L445.812 376.073L445.888 376.687L446.118 377.07L446.348 377.3L449.335 378.067H450.944L451.633 377.837L452.552 377.224L456.842 375.153L457.072 375.076L463.506 373.619L464.349 373.543L465.421 374.31L468.102 376.38L468.792 376.764L469.404 376.917H469.711L473.081 375.537L473.464 375.153L474.92 372.929L475.226 372.622L475.609 372.316L476.298 371.932L477.064 371.702H477.677L481.124 372.239L484.954 373.006L485.873 373.159L486.793 374.846L486.946 375.69L486.639 377.224L486.563 378.144L486.639 378.604L486.793 378.911L487.099 379.141L487.405 379.294L487.712 379.448L488.325 379.524L493.227 379.371L493.763 379.218L493.993 379.141L494.223 378.911L494.376 378.681L494.529 378.374V378.067V377.837L494.453 377.224V376.917L496.827 377.07L507.475 379.754Z" fill="#D4D3C4" stroke="white" stroke-width="2" stroke-linecap="round" stroke-linejoin="round"/>
<path d="M475.303 455.291L476.682 454.448L477.371 453.067L477.601 452.301L477.831 450.077L478.061 449.156L478.444 448.62L483.882 443.558L484.189 442.945L484.495 442.255L484.725 441.564L484.955 440.951L485.414 439.801L486.104 438.65L486.487 438.113L486.87 437.883L488.478 437.577L489.015 437.423L491.542 436.043L496.445 432.055L497.058 431.442L497.134 431.135L497.517 429.755L497.977 426.84L498.207 425.92L498.513 425.153L498.743 424.77L500.428 423.39L501.194 422.546L501.73 421.702L502.037 420.936L503.798 420.475L504.488 420.092L504.947 419.785L505.713 418.942L506.173 418.328L508.854 413.114L509.084 412.883L509.39 412.577L509.773 412.27L510.386 411.963L510.999 411.81H511.612L512.301 411.886L512.99 412.04L513.297 412.193L513.527 412.347L513.68 412.5L514.522 413.344L514.752 413.497L515.059 413.574L515.212 413.344L515.288 413.114V412.117L515.365 411.656L515.595 411.196L516.054 410.506L516.284 410.046L516.437 409.586V409.279L516.361 408.972L516.284 408.359L516.131 408.129V407.822L516.054 407.515V407.209L516.131 406.902V406.595L516.208 406.212L516.284 405.905V405.521L516.208 405.215L516.131 404.985L515.059 403.067L514.829 400.997L514.446 399.617V399.156L514.599 398.773L514.829 398.313L515.212 398.006L515.442 397.776L515.748 397.623L516.208 397.393L516.82 397.239L520.038 397.086L520.804 396.779L521.493 396.242L522.259 397.009L527.927 398.006L529.153 397.929L532.523 396.779L533.136 396.472L533.749 396.319H534.438L535.128 396.626L535.511 396.779L536.2 397.469L536.89 397.623L537.656 397.316L538.422 396.779L538.728 396.702H539.111H539.494L539.877 396.779L540.566 397.623L542.022 400.997L543.324 402.914L543.784 404.064L543.707 405.291L543.324 406.288L542.788 407.055L542.098 407.669L541.332 408.052L540.26 408.282H539.494L539.034 408.589L538.881 409.816L538.958 410.429L539.264 410.89L539.417 411.426V412.117L539.188 412.423L538.039 413.267L537.732 414.11L537.809 415.107L538.422 417.255L538.498 418.405L538.345 421.702L538.498 422.929L538.805 423.696L539.877 425.383L540.183 426.227L540.26 428.067L540.413 428.834L540.796 429.678L542.558 431.365L544.243 434.356L545.009 435.199L547.307 436.503L550.831 439.647L551.903 441.334L552.056 443.558L551.367 446.856L550.295 450L548.533 452.684L547.997 453.758L547.614 454.678L547.46 455.598L547.077 456.288L546.388 456.825L545.699 456.979L543.63 457.285L542.252 457.745L541.486 458.589L539.571 464.34L538.268 466.948L535.051 471.472L532.6 473.773L530.302 476.687L528.464 479.985L527.161 483.436L527.008 485.813L527.927 490.261L528.081 492.638L527.851 494.632L527.315 496.549L526.472 498.236L526.242 499.003L526.089 498.006L525.553 497.239L524.787 496.779L523.868 496.549L522.259 496.626L521.646 496.549L521.187 496.242L520.191 495.552L519.731 495.399L519.195 495.475L518.352 495.706L517.893 495.782L517.586 496.012L517.357 496.549L516.974 497.086L516.514 497.316L515.748 496.626L514.905 494.325L513.91 493.788L512.99 494.095L512.148 494.709L510.692 496.166L509.85 496.856L508.931 497.316L507.935 497.546L506.862 497.699L505.713 497.929L504.028 499.003L503.032 499.233L502.037 498.85L501.577 498.006L501.194 496.933L500.811 495.936L499.892 495.169L497.9 494.402L496.981 493.788L496.598 492.945L495.832 490.491L495.296 490.031L494.377 489.724L492.615 488.497L491.772 488.037H489.627L485.568 488.957L479.746 489.264L479.286 489.417L478.367 490.184L477.908 490.337H476.682L476.146 490.184L473.235 488.957L472.163 488.804L471.014 488.957L470.171 489.187L469.022 488.344L469.099 487.347L469.788 486.35L470.631 485.506L471.32 484.356L471.167 483.436L470.477 482.669L469.558 481.902L468.945 480.368L469.175 478.298L470.094 474.54L470.248 472.316L469.941 467.868L470.094 465.644L471.626 462.883L474.154 459.663L475.763 456.442L475.303 455.291Z" fill="#D4D3C4" stroke="white" stroke-width="2" stroke-linecap="round" stroke-linejoin="round"/>
<path d="M724.253 311.887L724.176 311.58L723.793 310.2L723.717 309.433L723.87 308.359L724.023 307.285V306.595V306.212L723.946 305.905L723.334 305.368L721.036 304.678L720.499 304.601L720.193 304.371L719.35 303.068L718.738 302.608L718.278 302.991L717.818 303.605L717.052 303.681L714.371 303.144L712.227 302.454L711.001 302.531L710.082 302.684L709.009 302.531L708.626 302.378L708.243 302.147L706.482 299.693L706.099 299.003L705.716 298.62L705.179 298.313L702.881 297.546L702.192 297.47L701.656 297.546L701.426 297.7L701.043 297.623L700.43 297.47L699.205 296.779H698.745L698.515 297.009L698.439 298.006L698.209 297.93L697.749 297.239L696.83 295.399L695.451 293.405L696.753 292.101L696.064 290.644L695.528 289.954L695.451 289.494L695.681 289.187L697.136 287.807L697.673 287.424L698.285 286.58L702.881 285.353L704.337 286.043L706.175 285.2L706.711 285.046H707.707L708.78 285.123L710.005 284.97L715.827 286.427L716.593 286.503L717.359 286.35L720.04 286.273L720.653 286.12L720.959 285.966L721.112 285.89L721.495 285.583L722.568 280.675L722.797 279.678L725.325 278.911L727.01 278.681L727.317 278.374L727.853 276.841L728.083 276.457L728.925 275.767L729.462 276.151L730.764 278.144L731.683 278.758L732.985 279.141L735.36 279.371L735.59 279.525L735.666 279.755V280.062L735.59 280.445V281.825L736.432 282.209L737.505 282.285L738.424 282.669L740.262 285.66L741.641 287.117L743.403 287.884L745.318 288.114L751.063 287.577L752.748 288.114L752.978 289.801L752.825 290.798L753.437 290.721L755.506 289.264L758.799 287.73L759.489 288.19L760.102 289.111L761.021 289.724L763.625 289.571L765.004 289.878L765.234 291.028L763.855 292.868L761.787 294.095L757.574 295.629L753.744 298.006L750.527 298.85L748.995 299.54L747.922 301.151L747.386 305.062L746.084 305.675L744.475 304.908H743.633L743.326 305.905L743.25 306.749L743.02 307.592L742.637 308.282L741.947 308.896L740.186 308.973L737.045 306.825L735.36 306.595L734.058 305.905L732.602 304.218L731.07 302.914L729.768 303.528L729.615 304.448L730.611 306.059L730.534 307.132L730.304 308.129V308.743L730.687 309.279L732.602 310.66L733.062 311.887V313.267L732.526 314.724L731.606 315.951L730.611 316.181L729.385 315.721L726.781 314.187L726.091 313.957L724.1 314.034L723.487 313.804L723.717 313.267L724.253 313.114L725.019 313.037L725.632 312.884L725.861 312.27L725.402 311.887L724.636 311.81L724.253 311.887Z" fill="#D4D3C4" stroke="white" stroke-width="2" stroke-linecap="round" stroke-linejoin="round"/>
<path d="M703.265 344.325L702.576 344.478L701.503 344.095L700.584 343.712L699.665 343.021L699.205 342.178L699.971 341.258H701.044L701.81 340.874L703.418 339.647L704.567 339.264L704.72 339.877L703.725 343.635L703.265 344.325ZM677.144 336.196L677.451 336.273L677.681 336.12L678.14 335.736L678.447 335.583L679.519 335.276L680.132 335.429L680.438 335.966L680.132 336.886L678.064 338.343L677.374 339.034L677.451 340.567L679.442 342.638L679.366 344.478L678.83 345.169L678.217 345.399H676.761L674.617 346.012L674.004 345.935L673.468 345.399L673.391 344.785L673.161 344.325L672.319 344.248L671.782 344.632L671.17 345.245L670.557 345.629L670.021 345.322L669.944 343.865L671.859 340.874L671.629 339.11L671.093 338.727L669.944 338.497L669.331 338.19L668.872 337.423L667.723 335.046L667.493 334.049L667.569 333.129L667.799 332.055L668.565 330.291L669.944 329.524L670.94 330.138L671.706 331.518L672.319 333.129L673.085 334.126L674.31 334.893L676.761 335.966L676.915 336.12L677.144 336.196ZM695.452 293.405L696.831 295.399L697.75 297.239L698.209 297.929L698.439 298.006L698.516 297.009L698.746 296.779H699.205L700.431 297.469L701.044 297.623L701.427 297.699L701.656 297.546L702.193 297.469L702.882 297.546L705.18 298.313L705.716 298.62L706.099 299.003L706.482 299.693L708.244 302.147L708.627 302.377L709.01 302.531L710.082 302.684L711.002 302.531L712.227 302.454L714.372 303.144L717.053 303.681L717.819 303.604L718.279 302.991L718.738 302.607L719.351 303.067L720.194 304.371L720.5 304.601L721.036 304.678L723.334 305.368L723.947 305.905L724.024 306.212V306.595V307.285L723.87 308.359L723.717 309.432L723.794 310.199L724.177 311.58L724.253 311.886L722.262 311.963L721.496 312.116L718.508 313.804L718.125 314.417L717.819 315.491L717.206 317.101L716.057 318.328L712.151 320.245L711.921 321.089L712.227 322.009L713.07 322.546L714.372 323.159L714.985 323.62L715.215 324.08L714.908 324.693L714.295 324.847L713.606 324.77L713.07 324.54L712.763 324.463H712.457L711.921 324.616L710.236 324.463L708.474 324.08L706.789 324.156L705.41 325.537L704.644 327.377L704.108 328.221L703.418 328.911L701.044 330.291L700.431 330.445L699.512 330.061L699.282 329.141V326.764L698.975 325.613L698.363 324.31L697.52 323.62L696.754 324.31L696.448 325.46L696.371 326.457L695.988 327.147L694.916 327.224L692.771 326.84L691.775 326.38L690.856 325.843L690.013 325L689.63 324.156L689.247 323.466L687.256 322.853L685.877 321.549L684.958 321.472L683.579 321.626L682.813 321.549L682.2 321.242L681.74 320.705L681.357 320.092L680.898 319.785L680.285 319.939L679.519 321.012L679.136 322.316L678.523 323.313L677.144 323.466L671.936 322.699L669.331 323.159L667.723 324.77L666.803 324.693L662.897 325.077L656.539 326.994L654.624 327.147L652.786 327.07L650.947 325.767L650.181 323.313L649.568 320.552L648.419 318.635L647.424 318.251L646.581 318.328L645.738 318.558L644.743 318.635L643.823 318.405L641.602 317.408L642.215 315.337L642.062 315.107L641.679 314.647L641.602 314.57L641.066 313.727L640.989 313.574L640.913 313.267L640.836 312.04L641.525 310.889L642.828 310.046L645.892 309.356L646.351 309.126L646.811 308.589L647.883 306.748L648.496 306.135L649.109 305.828L649.722 305.675L650.411 305.368L650.947 304.831L652.556 302.914L655.237 300.69L655.926 300.077L656.539 299.54L656.922 299.386L657.688 299.233L657.841 299.003L657.918 298.696L658.071 298.466L658.76 298.006L659.909 297.316L660.369 296.702L660.752 296.166L661.288 295.629L661.978 295.245L662.59 295.169L663.816 295.322L664.429 295.245L666.497 293.328H667.416L668.106 293.635L668.489 293.865L668.795 294.172L670.174 294.325L675.229 294.095L672.395 297.929L672.625 298.236L674.387 298.389L674.693 298.543L675.995 299.923L676.302 300.077L676.761 300.23L677.604 300.383L678.064 300.537L678.983 301.304L681.051 302.454L681.664 302.607L682.66 302.454L685.57 299.693L686.949 297.469L687.868 296.779L691.775 294.632L695.452 293.405Z" fill="#D4D3C4" stroke="white" stroke-width="2" stroke-linecap="round" stroke-linejoin="round"/>
<path d="M722.797 279.678L722.567 280.675L721.495 285.583L721.112 285.889L720.959 285.966L720.652 286.12L720.039 286.273L717.358 286.35L716.592 286.503L715.826 286.426L710.005 284.969L708.779 285.123L707.707 285.046H706.711L706.175 285.199L704.336 286.043L702.881 285.353L698.285 286.58L697.672 287.423L697.136 287.807L695.681 289.187L695.451 289.494L695.527 289.954L696.064 290.644L696.753 292.101L695.451 293.405L691.774 294.632L687.867 296.779L686.948 297.469L685.569 299.693L682.659 302.454L681.663 302.607L681.05 302.454L678.982 301.304L678.063 300.537L677.603 300.383L676.76 300.23L676.301 300.077L675.994 299.923L674.692 298.543L674.386 298.389L672.624 298.236L672.394 297.929L675.228 294.095L670.173 294.325L668.794 294.172L668.488 293.865L668.105 293.635L667.415 293.328H666.496L664.428 295.245L663.815 295.322L662.589 295.169L661.977 295.245L661.287 295.629L660.751 296.166L660.368 296.702L659.908 297.316L658.759 298.006L658.836 297.546L659.219 295.552L657.534 294.555L653.474 293.558L652.785 292.715L652.631 291.641L653.091 290.951L653.934 290.797L655.466 292.178L656.385 292.485L656.461 291.411L656.078 290.874L647.959 281.672L646.58 280.445L646.427 280.291L646.35 280.061L645.431 279.141L645.814 277.761L645.661 273.389L645.508 272.086L644.588 270.552L643.669 269.325L643.439 268.865L643.286 268.482V268.021L643.363 267.715L644.205 265.874L644.359 265.491L644.588 264.724L644.435 264.187L643.21 264.034L643.056 263.804L642.903 263.497L642.827 262.577L642.75 261.886L642.827 261.503L642.903 261.12L645.125 258.205L645.508 257.515L646.044 256.058H646.35L647.806 255.521L653.321 252.377L654.776 252.147L655.619 252.684L656.385 253.681L658.913 257.975L659.296 259.202L659.372 260.429L658.759 264.11L658.836 265.107L659.372 265.951L660.062 265.874L660.981 265.414L661.977 265.337L662.819 265.721L663.585 266.258L664.351 267.024L664.964 267.868L665.73 268.635L666.649 268.712L668.564 268.482L670.709 268.865L671.705 269.325L672.624 270.015L673.39 270.475L675.075 270.705L675.765 271.319L676.914 273.159L677.603 273.696L678.063 272.546L677.986 271.319L677.756 270.245L677.833 269.402L678.752 268.865L679.824 269.018L680.361 269.709L680.897 271.932L681.28 272.776L681.893 273.389L682.505 273.313L682.965 272.162L684.037 270.782L687.101 273.389L688.097 272.546L688.327 270.475L687.944 260.276L688.25 259.509L688.863 259.662L691.008 261.656L692.923 262.5L694.455 262.193L695.681 260.889L697.136 257.669L697.749 255.675L697.979 254.524L697.825 253.451L696.523 251.764L696.064 250.767L696.983 248.543L697.519 247.853L698.515 247.469L699.511 247.623L700.047 248.389L700.277 249.54V250.767L699.434 254.141L699.511 254.831L699.894 254.985L700.2 254.524L700.353 253.911L700.583 253.528L701.043 253.758L701.272 254.678L701.732 254.908L702.038 254.601L702.115 253.297L702.421 253.067L702.728 253.221L703.111 253.528L707.324 259.816L708.013 261.58L708.243 263.574L708.166 266.028L708.396 268.558L709.545 269.095L713.069 268.482L714.141 269.402L714.831 270.399L715.597 270.782L716.899 270.015L717.895 269.095L718.967 268.482L720.039 268.251L721.188 268.942L721.648 270.092L721.878 271.702L721.954 273.389L722.337 276.457V277.607L722.031 278.681L721.418 280.138L722.797 279.678ZM653.704 282.899L653.168 281.442L652.555 280.445L651.482 279.524L650.257 278.988L649.567 279.141L650.027 280.368L650.87 281.212L652.172 282.975L652.938 283.666L653.78 283.896L653.704 282.899Z" fill="#D4D3C4" stroke="white" stroke-width="2" stroke-linecap="round" stroke-linejoin="round"/>
<path d="M547.919 299.923L547.766 302.301L547.229 302.914L544.778 303.374L544.165 303.451L543.936 303.604L543.706 303.758L543.629 304.064L543.553 305.445L543.246 307.669L543.399 307.975L543.629 308.205L544.319 308.052L545.161 307.822H545.544L545.697 308.512L540.412 320.629L540.259 321.472L540.106 322.393L540.335 324.003L540.489 324.463L540.718 324.923L540.948 325.077L542.174 325.307L552.285 325.537L565.613 322.239H565.767L565.843 322.316L565.613 322.776L565.384 323.083L565.23 323.39L565.001 323.773L564.388 325.997L564.235 326.38L564.081 326.917L564.618 327.914V327.991L562.856 328.451L561.937 329.141L563.086 330.368L565.077 331.672L566.609 332.285L567.069 332.209L565.154 334.739L564.464 335.966L564.235 336.58V337.04V337.423L564.311 337.73L564.464 338.267L564.771 338.88L565.077 339.954L565.23 340.491L565.307 340.797V341.334L565.23 343.251L565.077 343.558H564.847L564.771 343.328L564.541 343.098L564.311 343.021L564.081 342.945L563.698 343.175L563.622 343.405L563.775 343.635L563.928 343.865L564.771 344.325L565.001 344.555L565.077 344.785L565.001 345.092L564.924 345.475L564.694 346.012L564.618 346.932L564.541 347.469H564.388L563.928 347.393L563.469 348.696L563.009 358.052L562.779 359.432L562.166 360.583L561.094 361.656L559.179 362.883L558.566 363.727L559.102 364.877L558.183 365.261L555.426 366.028L553.281 366.181L551.059 366.028L547.459 364.724L540.795 364.57L525.552 360.583L523.483 360.506L521.798 361.043L517.662 364.034L514.138 364.57L513.219 365.491L513.525 368.021L513.372 368.251L513.219 368.405L512.989 368.482L512.759 368.558L511.61 368.405L510.921 368.482L507.551 365.491L505.712 363.88L505.099 363.113L504.64 362.117L504.716 358.129L504.87 357.669L505.176 357.132L505.712 356.978H507.091L507.474 356.902L507.857 356.748L508.087 356.442L508.163 356.135V355.445V355.061L508.087 354.524L508.01 354.218L507.934 353.834V353.298V352.454L508.087 352.071L508.163 351.764L508.47 351.457L509.159 350.92L510.615 350.153L511.534 349.847L512.759 349.54H513.066L513.755 349.386L513.908 348.926L512.759 343.482L511.993 342.255L504.257 340.797L503.261 340.721L502.801 340.874L502.418 340.797L502.112 340.644L501.346 340.184H501.04L500.733 340.261L500.044 340.337L499.508 340.261L495.984 339.264L495.448 338.42L495.295 338.497H495.065L494.452 338.727L492.92 337.04L492.843 336.733V336.196L492.997 335.813L492.92 335.046L492.69 334.663L492.384 334.432H492.077H491.771L491.541 334.509L490.699 334.893L490.469 334.969L490.086 335.046H489.703L489.167 334.893L489.013 334.663L488.86 334.356L488.63 331.748L488.707 331.442L488.784 331.135L489.013 330.982L489.856 330.751L490.086 330.521L490.239 330.368L490.392 329.831L490.469 328.451L489.243 326.994L489.09 326.534V326.074L489.243 325.767V325.307L489.09 325.077L488.86 324.847L487.941 324.463L487.635 324.156L487.481 323.85L487.328 323.62L486.715 320.552L486.639 319.555L486.562 316.794V316.411L486.639 316.028L486.715 315.721L487.098 314.801L487.328 313.957L487.405 313.19L487.328 312.577L487.098 312.04L486.792 311.273L486.562 310.966L486.332 310.736L486.026 310.813L484.877 311.043L483.881 311.12L483.115 310.966L482.426 310.813L480.587 310.276L474.996 310.046L474.613 309.739L481.43 296.472L482.656 293.328L481.66 291.564L481.277 290.567L481.2 290.261V289.264L481.353 288.19V287.653V287.193L481.2 286.963L481.047 286.733L480.817 286.503L476.834 285.429L476.221 285.046L475.915 284.893L475.532 284.432L475.302 283.896L475.149 283.666L475.072 283.359L474.383 275.077L474.919 274.386L475.302 273.466L480.741 271.242V271.012L483.268 271.702L488.477 271.396L492.843 271.089L504.027 270.399L509.772 270.092L519.117 269.478L524.786 269.172L525.858 269.478L527.696 270.475L528.692 270.782L529.535 270.629L530.837 269.785L532.139 268.942L533.212 268.175L533.518 269.095L533.748 269.862L533.901 270.015L534.207 270.629L535.203 271.932L536.199 273.236L536.659 274.31L536.812 275.46L536.965 276.534L537.271 277.07L537.578 277.531L538.114 277.07L538.65 276.84L539.186 276.917L539.723 277.531L540.335 276.227L541.255 276.15L541.408 277.377V277.531L541.331 278.067L541.791 278.221L541.867 278.297L540.872 279.064L540.489 279.294L540.872 279.448L541.025 279.755L541.408 280.445V282.132L541.178 283.129L540.948 284.126L540.642 285.046L540.335 286.043L539.646 287.577L539.11 288.344L538.497 289.11L537.731 289.647L536.199 290.414L535.739 290.721L535.663 291.181L535.893 291.411L537.654 291.794L539.033 292.561L543.093 296.626L544.625 297.776L546.08 299.003L547.919 299.923Z" fill="#D4D3C4" stroke="white" stroke-width="2" stroke-linecap="round" stroke-linejoin="round"/>
<path d="M564.543 347.469L564.619 346.932L564.696 346.012L564.926 345.475L565.002 345.092L565.079 344.785L565.002 344.555L564.773 344.325L563.93 343.865L563.777 343.635L563.624 343.405L563.7 343.175L564.083 342.945L564.313 343.021L564.543 343.098L564.773 343.328L564.849 343.558H565.079L565.232 343.251L565.309 341.334V340.797L565.232 340.491L565.079 339.954L564.773 338.88L564.466 338.267L564.313 337.73L564.236 337.423V337.04V336.58L564.466 335.966L565.156 334.739L567.071 332.209L577.488 330.138L579.556 331.595L579.863 332.439L579.939 333.359V334.202L579.556 334.893L578.561 335.046L575.267 334.586L574.424 334.816L572.816 336.196L572.203 336.426L571.207 334.586L570.518 334.049L569.981 335.123L570.058 335.659L570.824 336.273L570.977 336.733L570.901 337.883L570.977 338.42L571.207 339.034L575.114 344.478L575.267 345.782L573.352 346.549L572.356 344.939L571.667 342.485L570.747 340.491L569.828 339.801L569.522 340.261L569.675 341.334L570.135 342.638L571.13 344.709L571.054 345.552L570.518 346.702L570.364 346.779L569.905 346.856L569.752 346.932L569.445 347.853V348.236L569.369 348.773L569.062 349.156L568.449 348.85L567.3 346.932L566.534 346.319L565.002 347.699L564.543 347.469ZM583.846 326.074L582.391 325.307L581.395 325.153L574.194 326.304L573.275 326.687L571.743 327.531L570.671 327.684L568.143 327.224L567.147 327.301L564.619 327.991V327.914L564.083 326.917L564.236 326.38L564.39 325.997L565.002 323.773L565.232 323.389L565.385 323.083L565.615 322.776L565.845 322.316L565.768 322.239H565.615L552.287 325.537L542.176 325.307L540.95 325.077L540.72 324.923L540.49 324.463L540.337 324.003L540.107 322.393L540.261 321.472L540.414 320.629L545.699 308.512L545.546 307.822H545.163L544.32 308.052L543.631 308.205L543.401 307.975L543.248 307.669L543.554 305.445L543.631 304.064L543.708 303.758L543.937 303.604L544.167 303.451L544.78 303.374L547.231 302.914L547.767 302.301L547.921 299.923L551.368 301.764L556.576 304.524L556.73 304.218L557.266 303.681H557.955L558.262 303.297L558.568 302.761L558.951 302.531L559.487 302.607L561.249 303.451L562.398 303.681L563.394 303.067L563.624 302.301L562.781 301.84L563.853 300.077L563.93 299.693L563.547 299.003L563.317 298.313L563.087 297.546L563.164 296.779L562.015 296.549L561.632 296.319L561.249 295.859L560.943 294.708L560.713 292.255L560.483 289.801L560.56 289.34L560.636 288.88L560.943 288.574L561.172 288.343L561.479 287.73L561.555 287.116L561.402 285.813L561.479 285.199L561.632 285.276L562.092 285.429L562.245 285.583L562.781 284.202L564.007 283.359L564.926 282.899L567.224 284.969L567.53 285.506L567.683 286.12L567.76 287.5L567.913 287.96L568.143 288.113L568.526 287.807H568.679L568.832 288.19L568.986 289.187L569.675 288.88L570.671 289.11L571.667 289.494L572.356 290.031L572.739 290.567L573.199 291.564L573.582 291.948L573.888 292.178L575.037 292.791L575.573 293.175L575.803 293.482L576.263 294.478V294.708L576.186 295.399L576.263 295.705L576.569 295.935L576.875 296.012L577.182 295.935L577.488 296.012L578.101 296.626L578.561 297.316L578.714 298.083L578.101 298.85L578.79 299.31L579.403 299.08L580.016 298.696L580.705 298.466L581.165 298.696L580.935 299.31L580.246 300.46L582.161 300.153L582.927 300.23L583.463 301.687L584.306 302.377L584.535 302.914L584.306 303.374L583.616 304.064V304.524L583.923 304.755L584.382 304.448L584.842 303.911L585.301 303.681L585.684 303.911L585.991 304.294V304.678L584.842 305.215L584.459 306.058L583.923 308.129L584.459 308.052L584.918 308.129L585.378 308.282L585.761 308.589L584.918 309.049L584.995 309.509L585.455 309.969L585.761 310.353L585.838 310.813L585.991 311.35L586.067 311.886L585.914 312.347L585.225 313.19L584.995 313.65L584.765 314.187L584.612 314.647L583.693 320.015L584.306 321.626L584.612 322.086L584.689 322.929L584.076 325.23L583.846 326.074Z" fill="#D4D3C4" stroke="white" stroke-width="2" stroke-linecap="round" stroke-linejoin="round"/>
<path d="M646.045 256.058L645.509 257.515L645.126 258.205L642.905 261.12L642.828 261.503L642.751 261.886L642.828 262.577L642.905 263.497L643.058 263.804L643.211 264.034L644.437 264.187L644.59 264.724L644.36 265.491L644.207 265.874L643.364 267.715L643.288 268.021V268.482L643.441 268.865L643.671 269.325L644.59 270.552L645.509 272.086L645.662 273.389L645.815 277.761L645.432 279.141L644.896 278.528L642.905 277.684L641.219 278.144L639.994 284.356L637.543 287.27L634.325 289.264L629.729 291.104L625.516 294.325L617.32 296.932L616.324 297.393L615.405 298.159L613.567 300.537L612.494 301.457L611.345 301.84L609.967 301.38L609.354 300.843L608.894 300.23L608.128 298.85L607.592 298.236L606.52 297.469L605.983 297.009L604.222 294.325L603.226 293.328L601.77 293.175L601.081 292.791L600.545 292.178L599.932 291.718L599.166 291.641L597.711 292.101L597.021 292.485L596.332 293.021L595.259 294.478L594.57 296.012L594.264 297.776L594.187 299.923L594.493 303.067L594.34 303.834L593.651 304.218L590.97 304.448L589.361 305.598V306.825L591.123 309.816H591.2L592.119 313.113L592.578 314.187L593.727 316.258L594.187 317.408L594.493 318.712L594.11 321.549L592.732 321.779L590.97 321.166L589.821 321.319L590.051 323.006L593.268 325.92V327.301L591.583 328.067L589.361 327.991L585.378 326.84L583.846 326.074L584.076 325.23L584.689 322.929L584.612 322.086L584.306 321.626L583.693 320.015L584.612 314.647L584.765 314.187L584.995 313.65L585.225 313.19L585.914 312.347L586.067 311.886L585.991 311.35L585.838 310.813L585.761 310.353L585.455 309.969L584.995 309.509L584.918 309.049L585.761 308.589L585.378 308.282L584.918 308.129L584.459 308.052L583.923 308.129L584.459 306.058L584.842 305.215L585.991 304.678V304.294L585.684 303.911L585.301 303.681L584.842 303.911L584.382 304.448L583.923 304.755L583.616 304.524V304.064L584.306 303.374L584.535 302.914L584.306 302.377L583.463 301.687L582.927 300.23L582.161 300.153L580.246 300.46L580.935 299.31L581.165 298.696L580.705 298.466L580.016 298.696L579.403 299.08L578.79 299.31L578.101 298.85L578.714 298.083L578.561 297.316L578.101 296.626L577.488 296.012L577.182 295.935L576.875 296.012L576.569 295.935L576.263 295.705L576.186 295.399L576.263 294.708V294.478L575.803 293.482L575.573 293.175L575.037 292.791L573.888 292.178L573.582 291.948L573.199 291.564L572.739 290.567L572.356 290.031L571.667 289.494L570.671 289.11L569.675 288.88L568.986 289.187L568.832 288.19L568.679 287.807H568.526L568.143 288.113L567.913 287.96L567.76 287.5L567.683 286.12L567.53 285.506L567.224 284.969L564.926 282.899L566.688 282.132L567.607 281.058L568.449 278.681L569.292 276.304L569.828 275.613L570.518 274.923L572.05 274.233L573.505 273.543L574.654 271.626L574.96 271.242L575.19 270.859L576.109 270.552L578.024 270.322L578.867 269.939L579.633 269.555L580.399 269.018L581.165 268.482L581.931 267.715L582.314 267.024L582.62 264.187L583.003 261.426L582.927 260.429L582.85 259.739L582.697 259.509L582.467 259.356L582.084 258.819L581.931 258.359L582.161 257.899L582.544 257.592L584.612 256.595L585.455 256.365L586.221 256.672L586.68 255.445L587.829 254.371L588.978 253.604L590.204 252.837L590.97 252.607L592.272 253.144L592.885 253.067L594.647 251.917L595.259 251.764L596.638 251.994L597.94 252.224L598.477 251.917L598.4 251.304L597.634 249.923L597.481 249.31L597.787 248.543L598.094 247.776L599.243 246.856L601.77 246.089L604.068 244.248L606.29 242.485L606.979 241.718L607.592 241.028L608.358 240.414L611.345 239.57L614.333 238.727L616.861 238.65L619.312 238.497L621.15 237.73L622.529 236.12L623.142 235.199L623.831 234.662L625.057 234.202L626.282 233.742L630.036 230.982L630.572 230.291L631.108 229.678L632.64 226.994L634.172 224.386L634.785 223.696L635.551 223.313L636.394 223.006L637.083 222.623L637.696 222.009L637.849 221.472L638.002 220.935L639.075 218.481L640.07 217.638L640.99 216.794L645.356 214.954L645.969 215.031L646.811 215.644L647.501 216.411L647.884 217.254L648.19 218.328L648.879 219.018L649.799 219.402L650.871 219.555L651.56 219.248L652.25 218.942L653.169 217.178L653.629 216.028L654.012 214.954L655.007 212.96L655.697 212.27L656.31 211.503L656.769 210.659L657.152 209.586L657.765 208.666H658.837L660.906 209.202L662.591 208.972L663.433 208.589L664.276 208.129L667.263 205.675L668.259 204.755L670.174 203.221L671.63 203.067L673.008 203.681L679.29 208.129L680.822 208.666L680.209 210.966L678.524 212.116L674.847 213.19L668.566 217.868L666.727 218.328L664.506 218.251L662.744 218.712L661.901 220.935L661.825 224.386L661.289 225.383L659.757 225.997L655.314 226.457L653.935 227.301L649.569 231.058L647.654 233.359L646.352 236.196L645.279 237.807L643.9 238.65L642.445 239.417L639.841 241.488L632.64 245.782L631.644 247.316L632.487 249.233L634.096 250.077L640.377 250.767L640.453 250.843L642.062 251.84L642.828 252.531L643.517 253.374L644.59 255.445L645.279 256.058H646.045ZM596.715 262.423L596.255 261.886L596.638 261.35L596.179 260.659L595.566 260.276L596.255 259.126L596.025 258.129L594.417 257.055L593.038 256.902L591.966 256.135L590.51 256.212L588.136 258.589L587.753 260.429L586.604 263.343L586.757 263.42L587.523 263.037L587.599 263.727L587.906 264.417L588.978 265.644L589.744 264.954V265.184L589.514 265.721L590.051 266.718L591.353 267.101L592.808 265.337L595.03 263.267L596.715 262.423Z" fill="#938F6A" stroke="white" stroke-width="2" stroke-linecap="round" stroke-linejoin="round"/>
<path d="M596.713 262.423L595.028 263.267L592.806 265.337L591.351 267.101L590.049 266.718L589.512 265.721L589.742 265.184V264.954L588.976 265.644L587.904 264.417L587.597 263.727L587.521 263.037L586.755 263.42L586.602 263.343L587.751 260.429L588.134 258.589L590.508 256.211L591.964 256.135L593.036 256.902L594.415 257.055L596.023 258.129L596.253 259.126L595.564 260.276L596.177 260.659L596.636 261.349L596.253 261.886L596.713 262.423Z" 

fill="#D4D3C4" stroke="white" stroke-width="2" stroke-linecap="round" stroke-linejoin="round"/>
</g>
<defs>
<clipPath id="clip0_443_587">
<rect width="766" height="500" fill="white"/>
</clipPath>
</defs>
</svg>
